
<svg xmlns="http://www.w3.org/2000/svg" version="1.1" xmlns:xlink="http://www.w3.org/1999/xlink" preserveAspectRatio="none" x="0px" y="0px" width="256px" height="256px" viewBox="0 0 256 256">
<defs>
<g id="Layer1_0_FILL">
<path fill="#676153" stroke="none" d="
M 195.75 98.25
Q 195.75 80.95 183.45 68.7 171.8 57 155.45 56.5
L 155.1 56.45
Q 85.75 53.5 81.5 69.45 80.45 80.35 76.75 85.1 75.5 86.8 74.8 89.5 74.3 91.45 74.05 94.05 70.2 106.05 58.2 112.3 46.35 123.2 48.25 128.25 49.15 130.65 47.1 135.55 45.25 139.9 47.1 144.2 45.25 139.9 47.1 135.55 49.15 130.65 48.25 128.25 46.35 123.2 58.2 112.3
L 48.6 119.05
Q 40.95 125.95 41.25 132.75 42.05 141.4 39.4 151.1 42.05 141.4 41.25 132.75 40.95 125.95 48.6 119.05
L 39.05 125.75
Q 35 130.4 36.3 144.05 36.3 147.4 34 149.35 36.3 147.4 36.3 144.05 35 130.4 39.05 125.75 26.25 132.15 12.3 142.7 2.6 149.95 -7.7 159.2
L -7.7 260.9 209.8 260.9
Q 216.85 232.1 215.95 190.85 212.8 155.2 203.6 138.85 194.45 122.45 195.65 101.7 195.75 100 195.75 98.25
M 53.05 133.4
Q 53.15 136.85 51.35 138.4 49.65 140.1 51.35 141.8 49.65 140.1 51.35 138.4 53.15 136.85 53.05 133.4 53.35 122.05 59.55 114.95 53.35 122.05 53.05 133.4
M 66.65 128.4
Q 62.85 138.45 66.8 148.3 70.15 153 71.15 158.95 70.15 153 66.8 148.3 62.85 138.45 66.65 128.4 Z"/>
</g>

<g id="Layer0_0_FILL">
<path fill="#9F876A" stroke="none" d="
M 214.5 82.4
Q 214.15 81.95 213.7 81.6 212.8 83.05 214.55 86.35 215.45 87.35 215.75 89.05 216.4 92.9 214.85 97.25 215.35 97.95 215.8 98.85 218 103.4 218.05 113.3 218 103.4 215.8 98.85 213.7 99.15 210.6 105.55 214.3 110.7 215.75 120.35 214.3 110.7 210.6 105.55 210.1 104.85 209.6 104.25 209.593359375 104.2611328125 209.55 104.25 207.5349609375 107.7017578125 202.9 108.25 198.7 108.5 191.1 112.2 188.4 114.85 183.4 114.25 178.35 113.6 172.5 117 166.6 120.35 161.3 120.05 158.35 119.05 155.25 120.45 154.45 121.5 153.8 122.5 149.95 128.35 148.95 132.45 149.95 128.35 153.8 122.5 144.9 123.05 140.5 126.5 138.05 128.4 137.45 132.45 132.9 133.15 129.55 131.3 122 129.5 118.4 120.9 118.85 115.25 115.15 110.15 111.6 105.85 107.25 105.3 104.3 87.05 107.25 83.55 108.15 81.7 107.25 79.8 108.2 78.4 111.75 79.8 113.8 76.6 119.25 74.55 120.05 72.4 116.1 71.7 113.05 71 115.05 68.65 115.7 66.5 110.9 68.65 107.85 70.25 108.65 67.25 106.2 66.9 104.15 69.55 102.25 67.45 103.95 66.05 106.25 64.7 105.95 61.6 105.15 61.05 102.8 62.75 101.05 58.5 102.05 55 100.75 45.2 106.4 36.15 111.15 26.5 120.1 21.6 123.85 19.65 128.65 18.15 130.4 16 142.5 11.25 129 12.95 114.15 20.8 102 29.45 91.8 44.25 88.1 49.1 87.15 58.45 86.7 62.5 86.8 67.35 86.95 77.5 89.25 91.25 90.5 100.55 94.35 103.3 99.8 106.75 102.45 112.95 108.85 130.55 123.95 146.85 145.3 171.95 166.05 176.35 162.05 161.65 159.95 151.75 157.6 151.05 155.55 148.35 152.85 146.45 149.6 140.75 148.75 139.3 147.9 137.65 148.75 139.3 149.6 140.75 152.85 146.45 155.55 148.35 157.6 151.05 159.95 151.75 158.55 145.25 157.95 140.75 157.65 138.3 157.6 136.55 153.7 133.8 161.15 128.95 176.1 120.35 204.2 116.5 210.6 115.75 210.3 120.3 216.1 123.95 220.9 140.75 221.2 141.85 221.5 143 221.9 141.9 221.95 137.25 221.95 132.55 221.8 125.9 223.6 103.85 219.15 96.3 219.65 86.45 214.5 82.4
M 205.25 139.9
Q 205.2 140.35 202.6 144.2 200 148.05 187.65 150.35 179.25 151.1 175.8 149.3 177.6 164.95 179.75 179.85 201.8 184.05 213.4 164.5
L 205.25 139.9 Z"/>

<path fill="#E9D9B3" stroke="none" d="
M 201.25 46.25
Q 193.3 30.05 181.7 20.8 163.75 8.5 142.5 11.25 130.4 16 128.65 18.15 123.85 19.65 120.1 21.6 111.15 26.5 106.4 36.15 100.75 45.2 102.05 55 101.05 58.5 102.8 62.75 105.15 61.05 105.95 61.6 106.25 64.7 103.95 66.05 102.25 67.45 104.15 69.55 106.2 66.9 108.65 67.25 107.85 70.25 110.9 68.65 115.7 66.5 115.05 68.65 113.05 71 116.1 71.7 120.05 72.4 119.25 74.55 113.8 76.6 111.75 79.8 108.2 78.4 107.25 79.8 108.15 81.7 107.25 83.55 104.3 87.05 107.25 105.3 111.6 105.85 115.15 110.15 118.85 115.25 118.4 120.9 122 129.5 129.55 131.3 132.9 133.15 137.45 132.45 138.05 128.4 140.5 126.5 144.9 123.05 153.8 122.5 154.45 121.5 155.25 120.45 157.9 116.6 161.7 112.15 157.9 116.6 155.25 120.45 158.35 119.05 161.3 120.05 166.6 120.35 172.5 117 178.35 113.6 183.4 114.25 188.4 114.85 191.1 112.2 198.7 108.5 202.9 108.25 207.5349609375 107.7017578125 209.55 104.25 207.4 101.8 204.6 100.65 207.4 101.8 209.55 104.25 209.593359375 104.2611328125 209.6 104.25 210.1 104.85 210.6 105.55 213.7 99.15 215.8 98.85 215.35 97.95 214.85 97.25 213.5 95.45 211.6 95.05 213.5 95.45 214.85 97.25 216.4 92.9 215.75 89.05 215.45 87.35 214.55 86.35 208.5 79.5 197.7 88.85 208.5 79.5 214.55 86.35 212.8 83.05 213.7 81.6 211.65 79.95 208 80.5 211.65 79.95 213.7 81.6 214.15 81.95 214.5 82.4
L 211.2 70.55
Q 209.05 54.15 201.25 46.25
M 168.45 46.85
Q 177.4 36.55 193.1 37.4 177.4 36.55 168.45 46.85
M 189.35 49.25
Q 193.65 48.15 195.7 45.75 193.65 48.15 189.35 49.25 185 50.35 182.1 52.75 179.2 55.2 174 54.95 179.2 55.2 182.1 52.75 185 50.35 189.35 49.25
M 185.6 31.05
Q 176.2 27.15 164.55 37.45 176.2 27.15 185.6 31.05
M 192.6 52.75
Q 194.5 51.5 197.6 51.45 199.6 51.4 199.75 51.4 204.75 52.35 204.7 57.55 202.4 54.4 199.95 54.75 197.4 53.85 195.45 55.2 191.7 57.35 190.3 59.45 189.05 62.35 182.65 66.95 182.3 65.2 182.2 63.35 182.3 62.2 183 61.3 185.5 58.1 188.45 55.85
L 192.6 52.75
M 191.25 63.45
Q 193.65 62.25 194.05 59.9 193.65 62.25 191.25 63.45 186.6 66.5 182.65 74.3 186.6 66.5 191.25 63.45
M 175.75 86.85
Q 174.5 83 171.7 85.05 174.5 83 175.75 86.85 175.75 94.2 177.9 98.45 175.75 94.2 175.75 86.85
M 166.2 81.7
Q 168.65 81.8 170.55 80.85 168.65 81.8 166.2 81.7 161.5 81 158.85 82.85 154.65 80.8 149.5 82.05 154.65 80.8 158.85 82.85 161.5 81 166.2 81.7
M 176.9 77.15
Q 178.3 78.3 179.65 79.55 184.8 84.5 188.45 91.15 189.35 92.1 190.35 93 190.75 93.3 191.25 93.7 194.45 96.25 198.05 97.6 202.25 100.1 201.6 105.3 202.25 100.1 198.05 97.6 194.45 96.25 191.25 93.7 190.75 93.3 190.35 93 189.35 92.1 188.45 91.15 189.6 92.8 190.35 94.35 191.95 97.7 191.25 100.4 190.95 101.8 190.35 102.85 188.75 105.65 184.8 105.65 182.75 105.35 181.1 105.85 182.75 105.35 184.8 105.65 188.75 105.65 190.35 102.85 190.95 101.8 191.25 100.4 191.95 97.7 190.35 94.35 189.6 92.8 188.45 91.15 184.8 84.5 179.65 79.55 178.3 78.3 176.9 77.15
M 199.25 79.55
Q 198.8 79.8 198.3 80 194.95 81.5 190.35 80.95 189.05 80.75 187.55 80.4 187.75 79.95 187.9 79.55 191.95 70.35 201.6 69.4 204.4 69.15 205.5 68.1 204.4 69.15 201.6 69.4 204.9 69.35 205.25 74.4 206.5 73.75 207.5 74.3 206.5 73.75 205.25 74.4 205.1 74.5 204.95 74.6 203.8 76.2 203.15 76.9 202.5 77.6 201.25 78.4 200 79.15 199.25 79.55
M 187.55 84
Q 189 84.45 190.35 84.65 198.5 85.9 205.4 79.55 207.6 77.5 209.75 74.6 207.6 77.5 205.4 79.55 198.5 85.9 190.35 84.65 189 84.45 187.55 84
M 162.3 72.55
Q 166.75 75.65 164.05 78.55 156.4 76.55 147.8 77.6 142.35 78.15 138.45 79.55 135 80.8 132.8 82.75 131.1 84.05 129.15 86.7 127.85 88.4 126.45 90.65 125.05 88.4 126.45 85.4 127.4 83.4 129.15 81.65 130.2 80.55 131.6 79.55 137.1 75.45 147.45 72.75 153.1 70.6 162.3 72.55
M 168.45 78.25
Q 170.3 70 166.05 64.4 170.3 70 168.45 78.25
M 174.55 76.75
Q 177.35 71.35 177.05 60.1 177.35 71.35 174.55 76.75
M 186.05 75.55
Q 190 67.95 195.35 64.3 190 67.95 186.05 75.55
M 164.1 59.9
Q 162.75 53.9 164.95 42.85 162.75 53.9 164.1 59.9
M 198.7 63.9
Q 201.75 60.7 204.85 60.2 201.75 60.7 198.7 63.9
M 172.7 105.75
Q 174.75 103.7 178.45 103.75 174.75 103.7 172.7 105.75
M 168.3 105.25
Q 164.6 115.2 174.25 112.9 164.6 115.2 168.3 105.25
M 156.2 58.45
Q 152.4 57.5 146.8 61.8 138.05 67.65 128.55 69 138.05 67.65 146.8 61.8 152.4 57.5 156.2 58.45
M 124.4 97.8
Q 126.85 97.8 129.15 97.2 134.3 95.85 138.7 91.5 139.25 90.95 139.8 90.4 142.9 85.4 147.6 82.75 142.9 85.4 139.8 90.4 139.25 90.95 138.7 91.5 141.3 89.95 143.35 91 146.25 86.65 151.15 83.7 156.65 80.45 161.15 86.95 161.35 86.65 161.7 86.4 161.35 86.65 161.15 86.95 160.5 87.8 160.4 89.25 159.5 89.8 158.5 90.25 158.45 90.3 158.4 90.3 157.25 90.85 156.1 91.25
L 156.05 91.25
Q 156 91.3 155.9 91.35 155.05 91.55 154.3 91.75 154.25 91.75 154.2 91.75 153.9 91.8 153.65 91.85 152.6 92 151.6 92.1 151.45 92.1 151.4 92.15 151.35 92.15 151.3 92.15 147.95 92.35 144.2 91.55 143.65 91.4 143.1 91.3 143.2 91.15 143.35 91 141.3 89.95 138.7 91.5 134.3 95.85 129.15 97.2 126.85 97.8 124.4 97.8
M 137.55 55.85
Q 147.7 48.2 154.9 53.85 147.7 48.2 137.55 55.85
M 146.1 41.6
Q 133.15 47.2 126.1 58.7 133.15 47.2 146.1 41.6
M 133.5 107.15
Q 130.2 112.8 132.35 119.8 130.2 112.8 133.5 107.15
M 134.65 101.35
Q 139.35 95.2 145.05 95.35 159.15 98.7 162.95 91.75 159.15 98.7 145.05 95.35 139.35 95.2 134.65 101.35
M 144.35 98.75
Q 139.5 99.05 137.55 104.05 139.5 99.05 144.35 98.75
M 196.55 103.2
Q 199.2 102.7 198.9 105 199.2 102.7 196.55 103.2 191.2056640625 104.7083984375 191.4 108.6 191.2056640625 104.7083984375 196.55 103.2
M 174.3 109.85
Q 181.6142578125 105.7771484375 182.45 111.1 181.6142578125 105.7771484375 174.3 109.85 Z"/>

<path fill="#000000" stroke="none" d="
M 154.8 88.45
Q 154.7 88.45 154.65 88.45 154 88.5 153.6 88.95 153.1 89.4 153.1 90.15 153.1 90.7 153.45 91.15 153.5 91.25 153.6 91.35 153.7 91.4 153.8 91.5 154 91.65 154.3 91.75 155.05 91.55 155.9 91.35 156 91.3 156.05 91.25
L 156.1 91.25
Q 156.2 91.1 156.25 90.9 156.4 90.65 156.45 90.35 156.45 90.25 156.45 90.15 156.45 89.4 156 88.95 155.45 88.45 154.8 88.45
M 201.6 76.95
Q 202 76.6 202 76.05 202 75.5 201.6 75.1 201.2 74.7 200.65 74.7 200.1 74.7 199.7 75.1 199.35 75.5 199.35 76.05 199.35 76.6 199.7 76.95 200.1 77.4 200.65 77.4 201.2 77.4 201.6 76.95 Z"/>

<path fill="#4A5A8B" stroke="none" d="
M 151.75 87.1
Q 150.6 88.25 150.6 89.9 150.6 91.15 151.3 92.15 151.35 92.15 151.4 92.15 151.45 92.1 151.6 92.1 152.6 92 153.65 91.85 153.9 91.8 154.2 91.75 154.25 91.75 154.3 91.75 154 91.65 153.8 91.5 153.7 91.4 153.6 91.35 153.5 91.25 153.45 91.15 153.1 90.7 153.1 90.15 153.1 89.4 153.6 88.95 154 88.5 154.65 88.45 154.7 88.45 154.8 88.45 155.45 88.45 156 88.95 156.45 89.4 156.45 90.15 156.45 90.25 156.45 90.35 156.4 90.65 156.25 90.9 156.2 91.1 156.1 91.25 157.25 90.85 158.4 90.3 158.45 90.3 158.5 90.25 158.5 90.1 158.5 89.9 158.5 88.25 157.35 87.1 156.2 85.95 154.55 85.95 152.9 85.95 151.75 87.1
M 200.85 71.95
Q 199 71.95 197.7 73.25 196.45 74.55 196.45 76.35 196.45 78.2 197.7 79.5
L 197.75 79.55
Q 198.05 79.8 198.3 80 198.8 79.8 199.25 79.55 200 79.15 201.25 78.4 202.5 77.6 203.15 76.9 203.8 76.2 204.95 74.6 204.6 73.85 204 73.25 202.7 71.95 200.85 71.95
M 202 76.05
Q 202 76.6 201.6 76.95 201.2 77.4 200.65 77.4 200.1 77.4 199.7 76.95 199.35 76.6 199.35 76.05 199.35 75.5 199.7 75.1 200.1 74.7 200.65 74.7 201.2 74.7 201.6 75.1 202 75.5 202 76.05 Z"/>

<path fill="#FFFFFF" stroke="none" d="
M 144.2 91.55
Q 143.75 91.2 143.35 91 143.2 91.15 143.1 91.3 143.65 91.4 144.2 91.55
M 143.35 91
Q 143.75 91.2 144.2 91.55 147.95 92.35 151.3 92.15 150.6 91.15 150.6 89.9 150.6 88.25 151.75 87.1 152.9 85.95 154.55 85.95 156.2 85.95 157.35 87.1 158.5 88.25 158.5 89.9 158.5 90.1 158.5 90.25 159.5 89.8 160.4 89.25 160.5 87.8 161.15 86.95 156.65 80.45 151.15 83.7 146.25 86.65 143.35 91
M 197.7 73.25
Q 199 71.95 200.85 71.95 202.7 71.95 204 73.25 204.6 73.85 204.95 74.6 205.1 74.5 205.25 74.4 204.9 69.35 201.6 69.4 191.95 70.35 187.9 79.55 187.75 79.95 187.55 80.4 189.05 80.75 190.35 80.95 194.95 81.5 198.3 80 198.05 79.8 197.75 79.55
L 197.7 79.5
Q 196.45 78.2 196.45 76.35 196.45 74.55 197.7 73.25 Z"/>

<path fill="#9C734F" stroke="none" d="
M 164.05 78.55
Q 166.75 75.65 162.3 72.55 153.1 70.6 147.45 72.75 137.1 75.45 131.6 79.55 130.2 80.55 129.15 81.65 127.4 83.4 126.45 85.4 125.05 88.4 126.45 90.65 127.85 88.4 129.15 86.7 131.1 84.05 132.8 82.75 135 80.8 138.45 79.55 142.35 78.15 147.8 77.6 156.4 76.55 164.05 78.55
M 197.6 51.45
Q 194.5 51.5 192.6 52.75
L 188.45 55.85
Q 185.5 58.1 183 61.3 182.3 62.2 182.2 63.35 182.3 65.2 182.65 66.95 189.05 62.35 190.3 59.45 191.7 57.35 195.45 55.2 197.4 53.85 199.95 54.75 202.4 54.4 204.7 57.55 204.75 52.35 199.75 51.4 199.6 51.4 197.6 51.45 Z"/>

<path fill="#EBE8CC" stroke="none" d="
M 182.7 133.6
Q 187.85 133.85 188.35 131.4 187.85 127.9 186.65 123.5 183.2 124.15 179.95 124.95 180.4 131.7 182.7 133.6
M 198.3 129.05
Q 199.65 130.05 202.3 128.3 202.35 121.8 205.7 119.4
L 197.45 121.35
Q 198.8 125.75 198.3 129.05
M 175.8 126.1
Q 174.75 129.95 177.35 134.8 180.65 135.5 182.7 133.6 180.4 131.7 179.95 124.95 177.85 125.5 175.8 126.1
M 177.35 134.8
Q 174.75 129.95 175.8 126.1 172.55 127.05 169.55 128.2 171.6 131.1 172.95 134.8 175.3 135.9 177.35 134.8
M 197.45 121.35
Q 195 121.65 191.95 122.45 194 126.1 193.9 130.1 195 130.35 195.9 130.3 197.55 130.2 198.3 129.05 198.8 125.75 197.45 121.35
M 188.5 123.15
Q 187.2 123.4 186.65 123.5 187.85 127.9 188.35 131.4 189.45 131.65 190.35 131.7 192.9 131.7 193.9 130.1 194 126.1 191.95 122.45 191.1 122.65 190.35 122.75 189.3 122.95 188.5 123.15 Z"/>

<path fill="#302E1F" stroke="none" d="
M 198.3 129.05
Q 197.55 130.2 195.9 130.3 198.2 134.05 196.35 140.75 196.35 140.85 196.3 140.95 196.45 140.85 196.6 140.75 200.45 138.4 203.45 134.4
L 202.35 131.2
Q 202.25 129.6 202.3 128.3 199.65 130.05 198.3 129.05 Z"/>

<path fill="#F1F0E5" stroke="none" d="
M 169.55 128.2
Q 168.8 128.45 168 128.8 160.95 131.7 157.6 136.55 157.65 138.3 157.95 140.75 158.55 145.25 159.95 151.75 162.05 161.65 166.05 176.35 173.4 203 187.05 245.5 189.8 249.25 189.35 239.65 183.4 205.35 179.75 179.85 177.6 164.95 175.8 149.3 175.6 145.95 175.15 143 174.95 141.85 174.7 140.75 174 137.55 172.95 134.8 171.6 131.1 169.55 128.2
M 210.3 120.3
Q 208.05 118.9 205.7 119.4 202.35 121.8 202.3 128.3 202.25 129.6 202.35 131.2
L 203.45 134.4 205.25 139.9 213.4 164.5 230.7 216.55
Q 240.85 242.35 238.45 220.8 230.7 182.75 223.25 150 222.4 146.25 221.5 143 221.2 141.85 220.9 140.75 216.1 123.95 210.3 120.3 Z"/>

<path fill="#6F5858" stroke="none" d="
M 177.35 134.8
Q 175.3 135.9 172.95 134.8 174 137.55 174.7 140.75 174.95 141.85 175.15 143 187.7 146 196.3 140.95 196.35 140.85 196.35 140.75 198.2 134.05 195.9 130.3 195 130.35 193.9 130.1 192.9 131.7 190.35 131.7 189.45 131.65 188.35 131.4 187.85 133.85 182.7 133.6 180.65 135.5 177.35 134.8 Z"/>

<path fill="#C58474" stroke="none" d="
M 205.25 139.9
L 203.45 134.4
Q 200.45 138.4 196.6 140.75 196.45 140.85 196.3 140.95 187.7 146 175.15 143 175.6 145.95 175.8 149.3 179.25 151.1 187.65 150.35 200 148.05 202.6 144.2 205.2 140.35 205.25 139.9
M 205.7 119.4
Q 208.05 118.9 210.3 120.3 210.6 115.75 204.2 116.5 176.1 120.35 161.15 128.95 153.7 133.8 157.6 136.55 160.95 131.7 168 128.8 168.8 128.45 169.55 128.2 172.55 127.05 175.8 126.1 177.85 125.5 179.95 124.95 183.2 124.15 186.65 123.5 187.2 123.4 188.5 123.15 189.3 122.95 190.35 122.75 191.1 122.65 191.95 122.45 195 121.65 197.45 121.35
L 205.7 119.4 Z"/>
</g>

<path id="Layer1_0_1_STROKES" stroke="#000000" stroke-width="2" stroke-linejoin="round" stroke-linecap="butt" fill="none" d="
M 155.45 56.5
Q 171.8 57 183.45 68.7 195.75 80.95 195.75 98.25 195.75 100 195.65 101.7"/>

<path id="Layer1_0_2_STROKES" stroke="#000000" stroke-width="2" stroke-linejoin="round" stroke-linecap="round" fill="none" d="
M 195.65 101.7
Q 194.45 122.45 203.6 138.85 212.8 155.2 215.95 190.85 216.85 232.1 209.8 260.9
L -7.7 260.9 -7.7 159.2
Q 2.6 149.95 12.3 142.7 26.25 132.15 39.05 125.75
L 48.6 119.05 58.2 112.3
Q 70.2 106.05 74.05 94.05 74.3 91.45 74.8 89.5 75.5 86.8 76.75 85.1 80.45 80.35 81.5 69.45 85.75 53.5 155.1 56.45
L 155.45 56.5"/>

<path id="Layer1_0_3_STROKES" stroke="#000000" stroke-width="1" stroke-linejoin="round" stroke-linecap="round" fill="none" d="
M 58.2 112.3
Q 46.35 123.2 48.25 128.25 49.15 130.65 47.1 135.55 45.25 139.9 47.1 144.2
M 59.55 114.95
Q 53.35 122.05 53.05 133.4 53.15 136.85 51.35 138.4 49.65 140.1 51.35 141.8
M 66.65 128.4
Q 62.85 138.45 66.8 148.3 70.15 153 71.15 158.95
M 48.6 119.05
Q 40.95 125.95 41.25 132.75 42.05 141.4 39.4 151.1
M 39.05 125.75
Q 35 130.4 36.3 144.05 36.3 147.4 34 149.35"/>

<path id="Layer0_0_1_STROKES" stroke="#000000" stroke-width="1" stroke-linejoin="round" stroke-linecap="round" fill="none" d="
M 162.92332305908204 48.98133087158203
Q 171.85065307617188 38.707420349121094 187.5108856201172 39.555267333984375
M 148.31043090820313 124.43971252441406
Q 148.9587844848633 123.44224548339844 149.7567581176758 122.39490509033203 152.4000457763672 118.55465698242188 156.19042053222657 114.11592864990234
M 168.45926513671876 57.060813903808594
Q 173.64609375 57.3101806640625 176.53874816894532 54.86638641357422 179.43140258789063 52.47246551513672 183.7703842163086 51.37525177001953 188.0594924926758 50.278038024902344 190.10429992675782 47.884117126464844
M 180.0298828125 33.221351623535156
Q 170.65369262695313 29.33123016357422 159.0332015991211 39.605140686035156
M 177.0873550415039 76.36180114746094
Q 181.02734985351563 68.58155822753906 185.6655715942383 65.5392837524414 188.0594924926758 64.34232330322266 188.45847930908204 61.99827575683594
M 172.3493865966797 100.45063018798828
Q 170.2048324584961 96.21139526367188 170.2048324584961 88.88001251220703 168.95799865722657 85.03976440429688 166.16509094238282 87.0845718383789
M 144.02132263183594 84.09217071533203
Q 149.1582778930664 82.8453369140625 153.34763946533204 84.89014434814453 155.99092712402344 83.04483032226562 160.67902221679688 83.74305725097656 163.12281646728516 83.84280395507812 165.01800384521485 82.89521026611328
M 196.38834228515626 78.10736846923828
Q 196.38834228515626 78.65597534179688 195.98935546875 79.00508880615234 195.59036865234376 79.45394897460938 195.04176177978516 79.45394897460938 194.49315490722657 79.45394897460938 194.09416809082032 79.00508880615234 193.74505462646485 78.65597534179688 193.74505462646485 78.10736846923828 193.74505462646485 77.55876159667969 194.09416809082032 77.15977478027344 194.49315490722657 76.76078796386719 195.04176177978516 76.76078796386719 195.59036865234376 76.76078796386719 195.98935546875 77.15977478027344 196.38834228515626 77.55876159667969 196.38834228515626 78.10736846923828 Z
M 181.97494354248047 86.0372314453125
Q 183.42127075195313 86.48609161376953 184.76785125732422 86.68558502197266 192.89720764160157 87.93241882324219 199.77973022460938 81.59850311279297 201.97415771484376 79.55369567871094 204.11871185302735 76.66104125976562
M 162.92332305908204 80.30179595947266
Q 164.76863708496094 72.07269287109375 160.52940216064454 66.48687744140625
M 169.00787200927735 78.80559539794922
Q 171.8007797241211 73.41927337646484 171.5015396118164 62.19776916503906
M 180.47874298095704 77.60863494873047
Q 184.41873779296876 70.02788543701172 189.75518646240235 66.38713073730469
M 209.20579376220704 99.25366973876953
Q 209.70452728271485 99.95189666748047 210.15338745117188 100.84961700439453 212.34781494140626 105.38809204101562 212.39768829345704 115.26301574707031
M 202.37314453125 82.54609680175781
Q 206.01389923095704 81.99748992919922 208.05870666503907 83.643310546875
M 205.96402587890626 97.05924224853516
Q 207.85921325683594 97.4582290649414 209.20579376220704 99.25366973876953
M 199.63011016845704 76.4615478515625
Q 200.87694396972657 75.81319427490234 201.8744110107422 76.36180114746094
M 158.58434143066407 61.99827575683594
Q 157.23776092529297 56.01347351074219 159.43218841552735 44.99146270751953
M 195.98935546875 71.47421264648438
Q 198.78226318359376 71.22484588623047 199.87947692871094 70.17750549316406
M 193.0967010498047 65.98814392089844
Q 196.13897552490235 62.79624938964844 199.2311233520508 62.297515869140625
M 192.09923400878907 90.87494659423828
Q 202.87187805175782 81.54862976074219 208.90655364990235 88.38127899169922
M 198.98175659179688 102.64505767822266
Q 201.77466430664063 103.79214477539062 203.94415512084962 106.2608757019043
M 203.969091796875 106.2359390258789
Q 204.46782531738282 106.83441925048828 204.96655883789063 107.53264617919922 208.65718688964844 112.66960144042969 210.1035140991211 122.29515838623047
M 167.16255798339844 107.73213958740234
Q 169.20736541748047 105.68733215332031 172.8979934692383 105.7372055053711
M 150.70435180664063 60.55194854736328
Q 146.91397705078126 59.60435485839844 141.32816162109376 63.893463134765625 132.60032501220704 69.72864532470703 123.1243881225586 71.07522583007812
M 118.98489990234376 99.80227661132812
Q 121.42869415283204 99.80227661132812 123.72286834716797 99.20379638671875 128.85982360839844 97.85721588134766 133.2486785888672 93.51823425292969 133.7972854614258 92.9696273803711 134.34589233398438 92.4210205078125 137.43804016113282 87.43368530273438 142.12613525390626 84.79039764404297
M 137.88690032958985 93.01950073242188
Q 138.2858871459961 93.218994140625 138.73474731445313 93.56810760498047
M 133.2486785888672 93.51823425292969
Q 135.84209289550782 91.97216033935547 137.88690032958985 93.01950073242188
M 148.80916442871094 93.7676010131836
Q 148.50992431640626 93.66785430908203 148.31043090820313 93.51823425292969 148.21068420410157 93.41848754882812 148.1109375 93.36861419677734 148.01119079589844 93.26886749267578 147.96131744384766 93.16912078857422 147.6122039794922 92.72026062011719 147.6122039794922 92.1716537475586 147.6122039794922 91.42355346679688 148.1109375 90.97469329833984 148.50992431640626 90.52583312988281 149.1582778930664 90.47595977783203 149.2081512451172 90.47595977783203 149.30789794921876 90.47595977783203 149.9562515258789 90.47595977783203 150.5048583984375 90.97469329833984 150.95371856689454 91.42355346679688 150.95371856689454 92.1716537475586 150.95371856689454 92.27140045166016 150.95371856689454 92.37114715576172 150.90384521484376 92.6703872680664 150.7542251586914 92.91975402832031 150.70435180664063 93.11924743652344 150.60460510253907 93.26886749267578
M 155.64181365966797 88.9797592163086
Q 155.8413070678711 88.6805191040039 156.19042053222657 88.43115234375
M 132.10159149169922 57.958534240722656
Q 142.22588195800782 50.327911376953125 149.40764465332032 55.963600158691406
M 140.62993469238282 43.74462890625
Q 127.71273651123047 49.3304443359375 120.68059387207032 60.80131530761719
M 128.06184997558594 109.12859344482422
Q 124.77020874023438 114.7642822265625 126.91476287841797 121.74655151367188
M 154.44485321044922 153.6156234741211
Q 152.1008056640625 152.91739654541016 150.05599822998047 150.22423553466797 147.3628372192383 148.32904815673828 144.1210693359375 142.64348602294922 143.27322235107422 141.19715881347656 142.42537536621094 139.55133819580078
M 143.47271575927735 134.36450958251953
Q 144.47018280029297 130.27489471435547 148.31043090820313 124.43971252441406
M 129.2089370727539 103.3432846069336
Q 133.89703216552735 97.2088623046875 139.5825942993164 97.35848236083984 153.64687957763672 100.69999694824219 157.4372543334961 93.7676010131836
M 138.88436737060547 100.74987030029297
Q 134.0466522216797 101.04911041259766 132.10159149169922 106.03644561767578"/>

<path id="Layer0_0_2_STROKES" stroke="#000000" stroke-width="2" stroke-linejoin="round" stroke-linecap="round" fill="none" d="
M 137.03905334472657 13.471504211425781
Q 158.2352279663086 10.728469848632812 176.13976135253907 22.997314453125 187.71037902832032 32.22388458251953 195.64024200439454 48.382850646972656 203.4204849243164 56.262840270996094 205.5650390625 72.62129974365234
L 208.85668029785157 84.4412841796875
Q 213.99363555908204 88.48102569580078 213.49490203857422 98.30607604980469 217.93363037109376 105.83695220947266 216.13818969726563 127.83110046386719 216.28780975341797 134.4642562866211 216.28780975341797 139.15235137939453 216.2379364013672 143.7905731201172 215.83894958496094 144.88778686523438 216.736669921875 148.12955474853516 217.5845169067383 151.87005615234375 225.0156463623047 184.53710174560547 232.7460159301758 222.49072265625 235.1399368286133 243.98613739013672 225.0156463623047 218.2514877319336
L 207.75946655273438 166.3333282470703
Q 196.18884887695313 185.83380889892578 174.1947006225586 181.64444732666016 177.83545532226563 207.0798568725586 183.7703842163086 241.29297637939453 184.21924438476563 250.86865997314453 181.47621002197266 247.12815856933594 167.86078491210938 204.73580932617188 160.52940216064454 178.15331268310547 139.83196105957032 173.76445770263672 118.53603973388672 148.72803497314453 103.47428741455079 132.46932220458984 97.09049835205079 114.91390228271484 94.44721069335938 108.72960662841797 89.01101531982422 105.28834533691406 85.17076721191407 102.5453109741211 83.92393341064454 93.26886749267578 81.6297592163086 79.55369567871094 81.48013916015626 69.42940521240234 81.3803924560547 64.59169006347656 81.82925262451172 60.55194854736328 82.77684631347657 51.22563171386719 86.46747436523438 46.387916564941406 96.64163818359376 31.625404357910156 108.7608627319336 22.997314453125 123.57324829101563 15.167198181152344 137.03905334472657 13.471504211425781 Z
M 199.33087005615235 76.66104125976562
Q 199.4804901123047 76.56129455566406 199.63011016845704 76.4615478515625 199.28099670410157 71.4243392944336 195.98935546875 71.47421264648438 186.36379852294922 72.42180633544922 182.32405700683594 81.59850311279297 182.1744369506836 81.99748992919922 181.97494354248047 82.44635009765625 183.4711441040039 82.79546356201172 184.76785125732422 82.99495697021484 189.3561996459961 83.54356384277344 192.69771423339844 82.04736328125
M 171.35191955566407 79.20458221435547
Q 172.74837341308594 80.35166931152344 174.09495391845704 81.59850311279297 179.2319091796875 86.53596496582031 182.87266387939454 93.16912078857422 183.7703842163086 94.11671447753906 184.76785125732422 95.01443481445312 185.16683807373047 95.31367492675781 185.6655715942383 95.71266174316406 188.8574661254883 98.2562026977539 192.44834747314454 99.602783203125 196.63770904541016 102.09645080566406 195.98935546875 107.28327941894531
M 192.69771423339844 82.04736328125
Q 193.19644775390626 81.84786987304688 193.6453079223633 81.59850311279297 194.393408203125 81.19951629638672 195.64024200439454 80.451416015625 196.88707580566407 79.6534423828125 197.53542938232422 78.95521545410156 198.18378295898438 78.25698852539062 199.33087005615235 76.66104125976562
M 175.5412811279297 107.8318862915039
Q 177.18710174560547 107.3331527709961 179.2319091796875 107.63239288330078 183.17190399169922 107.63239288330078 184.76785125732422 104.83948516845703 185.3663314819336 103.79214477539062 185.6655715942383 102.39569091796875 186.36379852294922 99.70252990722656 184.76785125732422 96.36101531982422 184.0197509765625 94.81494140625 182.87266387939454 93.16912078857422
M 200.07897033691407 121.34756469726562
Q 202.4230178833008 120.84883117675781 204.66731872558594 122.24528503417969
M 162.474462890625 130.7237548828125
Q 155.44232025146485 133.6164093017578 152.1008056640625 138.4541244506836
M 164.02053680419922 130.12527465820312
Q 163.2724365234375 130.37464141845703 162.474462890625 130.7237548828125
M 164.02053680419922 130.12527465820312
Q 167.0129379272461 128.97818756103516 170.25470581054688 128.0305938720703 172.2995132446289 127.43211364746094 174.39419403076172 126.88350677490234 177.6359619140625 126.08553314208984 181.0772232055664 125.43717956542969 181.625830078125 125.33743286132812 182.92253723144532 125.08806610107422 183.72051086425782 124.8885726928711 184.76785125732422 124.68907928466797 185.51595153808594 124.5893325805664 186.36379852294922 124.38983917236328 189.40607299804688 123.59186553955078 191.84986724853516 123.2926254272461
L 200.07897033691407 121.34756469726562
Q 196.73745574951172 123.74148559570312 196.68758239746094 130.2250213623047 196.63770904541016 131.521728515625 196.73745574951172 133.11767578125
L 197.8346694946289 136.3095703125 199.63011016845704 141.79563903808594 207.75946655273438 166.3333282470703
M 204.66731872558594 122.24528503417969
Q 210.45262756347657 125.88603973388672 215.24046936035157 142.64348602294922 215.53970947265626 143.7406997680664 215.83894958496094 144.88778686523438
M 185.81519165039063 110.57492065429688
Q 185.6213479578495 106.69317635893822 190.9521469116211 105.1885986328125 193.5954345703125 104.68986511230469 193.29619445800782 106.98403930664062
M 162.7737030029297 107.23340606689453
Q 159.08307495117188 117.158203125 168.70863189697266 114.86402893066406
M 171.8007797241211 136.70855712890625
Q 169.20736541748047 131.87084197998047 170.25470581054688 128.0305938720703
M 167.41192474365235 136.70855712890625
Q 169.75597229003907 137.80577087402344 171.8007797241211 136.70855712890625 175.09242095947266 137.4067840576172 177.1372283935547 135.5115966796875 174.84305419921876 133.6164093017578 174.39419403076172 126.88350677490234
M 169.60635223388672 144.88778686523438
Q 169.4068588256836 143.7406997680664 169.1574920654297 142.64348602294922 168.45926513671876 139.45159149169922 167.41192474365235 136.70855712890625 166.06534423828126 133.01792907714844 164.02053680419922 130.12527465820312
M 190.30379333496094 132.21995544433594
Q 191.94961395263672 132.12020874023438 192.69771423339844 130.9731216430664 193.19644775390626 127.68148040771484 191.84986724853516 123.2926254272461
M 192.69771423339844 130.9731216430664
Q 194.04429473876954 131.97058868408203 196.68758239746094 130.2250213623047
M 188.3088592529297 132.0204620361328
Q 189.40607299804688 132.26982879638672 190.30379333496094 132.21995544433594 192.59796752929688 135.96045684814453 190.75265350341797 142.64348602294922 190.75265350341797 142.74323272705078 190.7027801513672 142.84297943115234 190.85240020751954 142.74323272705078 191.00202026367188 142.64348602294922 194.84226837158204 140.2994384765625 197.8346694946289 136.3095703125
M 182.77291717529297 133.31716918945312
Q 183.87013092041016 133.56653594970703 184.76785125732422 133.6164093017578 187.31139221191407 133.6164093017578 188.3088592529297 132.0204620361328 188.40860595703126 128.0305938720703 186.36379852294922 124.38983917236328
M 177.1372283935547 135.5115966796875
Q 182.27418365478516 135.7609634399414 182.77291717529297 133.31716918945312 182.27418365478516 129.82603454589844 181.0772232055664 125.43717956542969
M 168.75850524902344 111.8217544555664
Q 176.05423634648324 107.75921925902367 176.8878616333008 113.06858825683594
M 169.60635223388672 144.88778686523438
Q 182.12456359863282 147.88018798828125 190.7027801513672 142.84297943115234
M 174.1947006225586 181.64444732666016
Q 172.050146484375 166.78218841552734 170.25470581054688 151.1718292236328 170.05521240234376 147.83031463623047 169.60635223388672 144.88778686523438
M 138.73474731445313 93.56810760498047
Q 142.47524871826172 94.36608123779297 145.81676330566407 94.16658782958984
M 152.99852600097657 92.27140045166016
Q 153.9959930419922 91.82254028320312 154.89371337890626 91.27393341064453 154.99346008300782 89.82760620117188 155.64181365966797 88.9797592163086 151.15321197509766 82.49622344970703 145.66714324951172 85.73799133300781 140.77955474853516 88.6805191040039 137.88690032958985 93.01950073242188 137.7372802734375 93.16912078857422 137.63753356933594 93.31874084472656 138.18614044189454 93.41848754882812 138.73474731445313 93.56810760498047
M 145.81676330566407 94.16658782958984
Q 145.86663665771485 94.16658782958984 145.91651000976563 94.16658782958984 145.9663833618164 94.11671447753906 146.11600341796876 94.11671447753906 147.11347045898438 94.0169677734375 148.1608108520508 93.86734771728516 148.4101776123047 93.81747436523438 148.70941772460938 93.7676010131836 148.75929107666016 93.7676010131836 148.80916442871094 93.7676010131836
M 150.60460510253907 93.26886749267578
Q 151.75169219970704 92.86988067626953 152.898779296875 92.32127380371094 152.9486526489258 92.32127380371094 152.99852600097657 92.27140045166016
M 148.80916442871094 93.7676010131836
Q 149.55726470947266 93.56810760498047 150.40511169433594 93.36861419677734 150.5048583984375 93.31874084472656 150.5547317504883 93.26886749267578
L 150.60460510253907 93.26886749267578
M 152.1008056640625 138.4541244506836
Q 152.1506790161133 140.19969177246094 152.44991912841797 142.64348602294922 153.04839935302735 147.13208770751953 154.44485321044922 153.6156234741211 156.53953399658204 163.49054718017578 160.52940216064454 178.15331268310547"/>

<path id="Layer0_0_3_STROKES" stroke="#000000" stroke-width="1.5" stroke-linejoin="round" stroke-linecap="round" fill="none" d="
M 192.09923400878907 81.54862976074219
Q 190.85240020751954 80.25192260742188 190.85240020751954 78.40660858154297 190.85240020751954 76.61116790771484 192.09923400878907 75.31446075439453 193.39594116210938 74.01775360107422 195.2412551879883 74.01775360107422 197.0865692138672 74.01775360107422 198.3832763671875 75.31446075439453 198.98175659179688 75.9129409790039 199.33087005615235 76.66104125976562
M 145.81676330566407 94.16658782958984
Q 145.11853637695313 93.16912078857422 145.11853637695313 91.92228698730469 145.11853637695313 90.2764663696289 146.2656234741211 89.12937927246094 147.41271057128907 87.98229217529297 149.05853118896485 87.98229217529297 150.70435180664063 87.98229217529297 151.8514389038086 89.12937927246094 152.99852600097657 90.2764663696289 152.99852600097657 91.92228698730469 152.99852600097657 92.12178039550781 152.99852600097657 92.27140045166016"/>
</defs>

<g transform="matrix( 1, 0, 0, 1, 0,0) ">
<use xlink:href="#Layer1_0_FILL"/>

<use xlink:href="#Layer1_0_1_STROKES"/>

<use xlink:href="#Layer1_0_2_STROKES"/>

<use xlink:href="#Layer1_0_3_STROKES"/>
</g>

<g transform="matrix( 0.997467041015625, 0, 0, 0.997467041015625, -5.1,2.25) ">
<use xlink:href="#Layer0_0_FILL"/>

<use xlink:href="#Layer0_0_1_STROKES" transform="matrix( 1.002532958984375, 0, 0, 1.002532958984375, 5.1,-2.25) "/>

<use xlink:href="#Layer0_0_2_STROKES" transform="matrix( 1.002532958984375, 0, 0, 1.002532958984375, 5.1,-2.25) "/>

<use xlink:href="#Layer0_0_3_STROKES" transform="matrix( 1.002532958984375, 0, 0, 1.002532958984375, 5.1,-2.25) "/>
</g>
</svg>
